<?xml version="1.0" encoding="utf-8"?>
<!-- Generator: Adobe Illustrator 24.3.0, SVG Export Plug-In . SVG Version: 6.00 Build 0)  -->
<svg version="1.1" id="nite_owl_productions_logo" xmlns="http://www.w3.org/2000/svg" xmlns:xlink="http://www.w3.org/1999/xlink"
	 x="0px" y="0px" viewBox="0 0 207.3 207.3" style="enable-background:new 0 0 207.3 207.3;" xml:space="preserve">
<style type="text/css">
	.st0{fill:#00F57D;}
</style>
<g id="owl">
	<path id="wing" class="st0" d="M142.4,145.5c6.7,15.6,7.2,35.4-3.2,45.4c-5.9,6.9-12.1,11.9-20,15.2c10.4-1.6,20.5-4.7,30-9.4
		c8.6-12.1,14.2-24.7,6.5-39.8C152.6,151.6,146.1,147.9,142.4,145.5z"/>
	<path id="eye" class="st0" d="M207.2,101.1c-2.5,8.4-7.2,15.9-13.8,21.7c-0.7,0-0.9-0.4-1-0.7c-3.4-19.9-17-28.6-35.3-31.7
		c-5.5-0.9-11.2-1-16.8-1.2c-4.2-0.2-5.2-0.4-5.1,4.8c0.5,20.3,8.8,36.5,26.5,46.8c14.6,8.5,30.8,4.9,41.3-8.1
		c2.8-9.5,4.2-19.3,4.2-29.2C207.3,102.8,207.3,102,207.2,101.1z M180.9,116.1c-0.4,3.4-5.4,6.6-9,7.9c-9.1,3.2-20-2.7-22.4-12.2
		c-1-3.9-0.8-9.7,1.7-12.5c1.9-2.1,7.5-2.2,11.3-2.7c0.1,0.8,0.3,1.5,0.5,2.3c-4.3,6.6-4.1,11.2,0.6,13.8s8.7,0.3,13.1-9
		C178.3,106.8,181.5,111,180.9,116.1L180.9,116.1z"/>
	<path id="background" class="st0" d="M115.9,105c1.1-17.3-0.1-26.5-15.5-48.1c3.9,0.9,6.2,1.5,8.5,1.9c14,2.8,27.8,6.1,41.9,8.2
		c2.8,0.3,5.6,0.1,8.4-0.4c14-2.3,17.4-8.5,11.8-23c12,6.1,22.3,12.9,29.4,22.6c-20.6-53.4-80.6-79.9-134-59.3
		c-17,6.6-31.9,17.5-43.3,31.6c11-6.3,25.1-2.4,31.4,8.6s2.4,25.1-8.6,31.4c-11,6.3-25.1,2.4-31.4-8.6c-2-3.5-3-7.4-3-11.4
		c0-0.8,0-1.6,0.1-2.4C-14.7,107,5.3,169.6,56.2,195.8c14.7,7.6,30.9,11.5,47.4,11.5c1.6,0,3.1,0,4.6-0.1c2.6-15,4-21.4,2.6-35.5
		c-1-10.3-5.3-25.3,6-38.2C121.4,128.4,115.1,116.1,115.9,105z M117.9,30.8h5.5c0.4,0,0.8-0.3,0.8-0.8v-5.5c0-0.4,0.4-0.8,0.8-0.8
		c0.4,0,0.8,0.3,0.8,0.8V30c0,0.4,0.3,0.8,0.8,0.8c0,0,0,0,0,0h5.5c0.4,0,0.7,0.4,0.7,0.9c0,0.4-0.3,0.7-0.7,0.7h-5.5
		c-0.4,0-0.8,0.3-0.8,0.7c0,0,0,0,0,0v5.5c0,0.4-0.4,0.8-0.8,0.8c-0.4,0-0.8-0.3-0.8-0.8v-5.5c0-0.4-0.3-0.8-0.8-0.8h-5.5
		c-0.4,0-0.7-0.4-0.7-0.9C117.2,31.1,117.5,30.8,117.9,30.8L117.9,30.8z M37,97.6h5.5c0.4,0,0.8-0.3,0.8-0.8c0,0,0,0,0,0v-5.5
		c0-0.4,0.3-0.8,0.8-0.8c0.4,0,0.8,0.3,0.8,0.8v5.5c0,0.4,0.3,0.8,0.8,0.8h5.5c0.4,0,0.8,0.3,0.8,0.8c0,0.4-0.3,0.8-0.8,0.8
		c0,0,0,0,0,0h-5.4c-0.4,0-0.8,0.3-0.8,0.8c0,0,0,0,0,0v5.5c0,0.4-0.3,0.8-0.8,0.8c-0.4,0-0.8-0.3-0.8-0.8v-5.5
		c0-0.4-0.4-0.8-0.8-0.8l0,0H37c-0.4,0-0.8-0.3-0.8-0.8C36.2,97.9,36.6,97.6,37,97.6C37,97.6,37,97.6,37,97.6z M51.1,152.1h-5.4
		c-0.4,0-0.8,0.3-0.8,0.8v5.5c0,0.4-0.3,0.8-0.8,0.8c-0.4,0-0.8-0.3-0.8-0.8v-5.5c0-0.4-0.3-0.8-0.8-0.8c0,0,0,0,0,0H37
		c-0.4,0-0.8-0.4-0.8-0.8c0-0.4,0.4-0.8,0.8-0.8h5.5c0.4,0,0.8-0.3,0.8-0.8c0,0,0,0,0,0v-5.5c0-0.4,0.3-0.8,0.8-0.8
		c0.4,0,0.8,0.3,0.8,0.8v5.5c0,0.4,0.3,0.8,0.8,0.8h5.5c0.4,0,0.8,0.3,0.8,0.8C51.9,151.8,51.5,152.1,51.1,152.1z M62.9,125.6h-5.5
		c-0.4,0-0.8,0.3-0.8,0.8v5.5c0,0.4-0.4,0.7-0.9,0.7c-0.4,0-0.7-0.3-0.7-0.7v-5.5c0-0.4-0.3-0.8-0.8-0.8h-5.5
		c-0.4,0-0.8-0.4-0.8-0.8c0-0.4,0.3-0.8,0.8-0.8h5.5c0.4,0,0.8-0.3,0.8-0.8c0,0,0,0,0,0v-5.5c0-0.4,0.4-0.7,0.9-0.7
		c0.4,0,0.7,0.3,0.7,0.7v5.5c0,0.4,0.3,0.8,0.8,0.8c0,0,0,0,0,0h5.5c0.4,0,0.8,0.4,0.8,0.8C63.7,125.3,63.3,125.6,62.9,125.6z
		 M78.9,32.4h-5.5c-0.4,0-0.8,0.3-0.8,0.7v5.5c0,0.4-0.4,0.8-0.8,0.8c-0.4,0-0.8-0.3-0.8-0.8v-5.5c0-0.4-0.3-0.8-0.8-0.8
		c0,0,0,0,0,0h-5.4c-0.4,0-0.8-0.3-0.9-0.7c0-0.4,0.3-0.8,0.7-0.9c0.1,0,0.1,0,0.2,0h5.5c0.4,0,0.8-0.3,0.8-0.8c0,0,0,0,0,0v-5.4
		c0-0.4,0.4-0.8,0.8-0.8c0.4,0,0.8,0.3,0.8,0.8V30c0,0.4,0.3,0.8,0.8,0.8h5.5c0.4,0,0.7,0.4,0.7,0.9C79.6,32.1,79.3,32.4,78.9,32.4
		L78.9,32.4z M99.2,21.4v5.5c0,0.4-0.3,0.8-0.7,0.9c-0.4,0-0.8-0.3-0.9-0.7c0-0.1,0-0.1,0-0.2v-5.5c0-0.4-0.3-0.8-0.8-0.8h-5.5
		c-0.4,0-0.8-0.3-0.8-0.8s0.3-0.8,0.8-0.8c0,0,0,0,0,0h5.5c0.4,0,0.8-0.3,0.8-0.8c0,0,0,0,0,0v-5.5c0-0.4,0.3-0.8,0.7-0.9
		c0.4,0,0.8,0.3,0.9,0.7c0,0.1,0,0.1,0,0.2v5.5c0,0.4,0.3,0.8,0.8,0.8c0,0,0,0,0,0h5.5c0.4,0,0.8,0.3,0.8,0.8s-0.3,0.8-0.8,0.8
		c0,0,0,0,0,0H100C99.5,20.6,99.2,20.9,99.2,21.4L99.2,21.4z"/>
</g>
</svg>
